<mxfile host="app.diagrams.net" modified="2024-05-18T01:35:49.155Z" agent="Mozilla/5.0 (Windows NT 10.0; Win64; x64) AppleWebKit/537.36 (KHTML, like Gecko) Chrome/123.0.0.0 Safari/537.36 OPR/109.0.0.0 (Edition std-1)" etag="Xl_23lxIpgI8I_TeeM9p" version="24.4.4" type="google">
  <diagram name="Página-1" id="CDUE7qPUAqUkDwanDlJn">
    <mxGraphModel grid="1" page="1" gridSize="10" guides="1" tooltips="1" connect="1" arrows="1" fold="1" pageScale="1" pageWidth="827" pageHeight="1169" math="0" shadow="0">
      <root>
        <mxCell id="0" />
        <mxCell id="1" parent="0" />
        <mxCell id="YOQtWQg8F9vhpvxFz-Sj-2" value="Usuario" style="shape=umlActor;verticalLabelPosition=bottom;verticalAlign=top;html=1;" vertex="1" parent="1">
          <mxGeometry x="60" y="130" width="30" height="60" as="geometry" />
        </mxCell>
        <mxCell id="YOQtWQg8F9vhpvxFz-Sj-3" value="Consultar produção" style="ellipse;whiteSpace=wrap;html=1;" vertex="1" parent="1">
          <mxGeometry x="180" y="140" width="140" height="70" as="geometry" />
        </mxCell>
        <mxCell id="QdudNUhBWWnRdLo8nEw1-13" value="" style="endArrow=classic;html=1;rounded=0;" edge="1" parent="1">
          <mxGeometry width="50" height="50" relative="1" as="geometry">
            <mxPoint x="110" y="180" as="sourcePoint" />
            <mxPoint x="170" y="180" as="targetPoint" />
          </mxGeometry>
        </mxCell>
        <mxCell id="hW_KKmW4UyXy6G2q0P27-3" value="Administrador" style="shape=umlActor;verticalLabelPosition=bottom;verticalAlign=top;html=1;" vertex="1" parent="1">
          <mxGeometry x="414" y="130" width="30" height="60" as="geometry" />
        </mxCell>
        <mxCell id="hW_KKmW4UyXy6G2q0P27-4" value="Consultar produção" style="ellipse;whiteSpace=wrap;html=1;" vertex="1" parent="1">
          <mxGeometry x="534" y="180" width="140" height="70" as="geometry" />
        </mxCell>
        <mxCell id="hW_KKmW4UyXy6G2q0P27-5" value="Cadastrar produção" style="ellipse;whiteSpace=wrap;html=1;" vertex="1" parent="1">
          <mxGeometry x="534" y="90" width="140" height="70" as="geometry" />
        </mxCell>
        <mxCell id="hW_KKmW4UyXy6G2q0P27-6" value="Atualizar produção" style="ellipse;whiteSpace=wrap;html=1;" vertex="1" parent="1">
          <mxGeometry x="534" y="280" width="140" height="70" as="geometry" />
        </mxCell>
        <mxCell id="hW_KKmW4UyXy6G2q0P27-7" value="Excluir produção" style="ellipse;whiteSpace=wrap;html=1;" vertex="1" parent="1">
          <mxGeometry x="534" y="370" width="140" height="70" as="geometry" />
        </mxCell>
        <mxCell id="hW_KKmW4UyXy6G2q0P27-8" value="" style="endArrow=classic;html=1;rounded=0;" edge="1" parent="1">
          <mxGeometry width="50" height="50" relative="1" as="geometry">
            <mxPoint x="464" y="160" as="sourcePoint" />
            <mxPoint x="524" y="130" as="targetPoint" />
          </mxGeometry>
        </mxCell>
        <mxCell id="hW_KKmW4UyXy6G2q0P27-9" value="" style="endArrow=classic;html=1;rounded=0;" edge="1" parent="1">
          <mxGeometry width="50" height="50" relative="1" as="geometry">
            <mxPoint x="464" y="160" as="sourcePoint" />
            <mxPoint x="514" y="190" as="targetPoint" />
          </mxGeometry>
        </mxCell>
        <mxCell id="hW_KKmW4UyXy6G2q0P27-10" value="" style="endArrow=classic;html=1;rounded=0;" edge="1" parent="1">
          <mxGeometry width="50" height="50" relative="1" as="geometry">
            <mxPoint x="464" y="160" as="sourcePoint" />
            <mxPoint x="524" y="280" as="targetPoint" />
          </mxGeometry>
        </mxCell>
        <mxCell id="hW_KKmW4UyXy6G2q0P27-11" value="" style="endArrow=classic;html=1;rounded=0;" edge="1" parent="1">
          <mxGeometry width="50" height="50" relative="1" as="geometry">
            <mxPoint x="464" y="160" as="sourcePoint" />
            <mxPoint x="514" y="390" as="targetPoint" />
          </mxGeometry>
        </mxCell>
      </root>
    </mxGraphModel>
  </diagram>
</mxfile>
